/* XPM */
static char * bitcoin64_xpm[] = {
"64 64 386 2",
"  	c None",
". 	c #000000",
"+ 	c #271E07",
"@ 	c #46370D",
"# 	c #5F4911",
"$ 	c #6C5414",
"% 	c #6D5413",
"& 	c #614B12",
"* 	c #49390E",
"= 	c #2C2208",
"- 	c #020100",
"; 	c #624B12",
"> 	c #A27F1D",
", 	c #E8B22A",
"' 	c #FFD431",
") 	c #FFC92F",
"! 	c #FFC42E",
"~ 	c #FEC32E",
"{ 	c #FDC12D",
"] 	c #FEC22E",
"^ 	c #FFC82F",
"/ 	c #FFD331",
"( 	c #F1B92B",
"_ 	c #AC851F",
": 	c #6B5414",
"< 	c #0A0702",
"[ 	c #5A4510",
"} 	c #C09422",
"| 	c #FFD131",
"1 	c #FEC22D",
"2 	c #FBBF2D",
"3 	c #FBC02D",
"4 	c #D1A025",
"5 	c #654F13",
"6 	c #6B5514",
"7 	c #F6BF2D",
"8 	c #FFC22E",
"9 	c #FFC72F",
"0 	c #816518",
"a 	c #48380D",
"b 	c #F2BC2C",
"c 	c #FCC02D",
"d 	c #FDC42E",
"e 	c #5F4B12",
"f 	c #010000",
"g 	c #BA8F21",
"h 	c #FFC32E",
"i 	c #D0A226",
"j 	c #100C03",
"k 	c #292008",
"l 	c #F7BF2D",
"m 	c #FABF2D",
"n 	c #DCAB28",
"o 	c #FFC72E",
"p 	c #3F300B",
"q 	c #4A3A0E",
"r 	c #FFCB2F",
"s 	c #C69823",
"t 	c #584512",
"u 	c #FFCC30",
"v 	c #735A15",
"w 	c #5F4B11",
"x 	c #7F6317",
"y 	c #EDB62D",
"z 	c #FFC62E",
"A 	c #95731B",
"B 	c #574510",
"C 	c #FFCB30",
"D 	c #FFC52E",
"E 	c #392B0A",
"F 	c #574414",
"G 	c #FFC32D",
"H 	c #8D6D1A",
"I 	c #3A2C0A",
"J 	c #FFCD30",
"K 	c #E0AF29",
"L 	c #130E03",
"M 	c #010100",
"N 	c #E5B02D",
"O 	c #5C4A11",
"P 	c #171104",
"Q 	c #B38920",
"R 	c #4E3D17",
"S 	c #FFC52D",
"T 	c #2C2308",
"U 	c #DFAE29",
"V 	c #655013",
"W 	c #DAA92F",
"X 	c #836518",
"Y 	c #FAC02D",
"Z 	c #2B2208",
"` 	c #433618",
" .	c #FFC72D",
"..	c #AB831F",
"+.	c #110D03",
"@.	c #D8A82A",
"#.	c #060401",
"$.	c #CEA230",
"%.	c #322609",
"&.	c #AE8820",
"*.	c #FFC82E",
"=.	c #A68227",
"-.	c #00040D",
";.	c #3B301C",
">.	c #FFCA2D",
",.	c #DAA827",
"'.	c #1C1505",
").	c #FFCF30",
"!.	c #FFC92E",
"~.	c #5F4E20",
"{.	c #181A1F",
"].	c #000002",
"^.	c #C49C31",
"/.	c #4A380D",
"(.	c #A17E1D",
"_.	c #F1BB2C",
":.	c #302B1C",
"<.	c #1D1C1C",
"[.	c #0E0E0E",
"}.	c #342C1F",
"|.	c #FFCB2D",
"1.	c #CB9C24",
"2.	c #FFCE30",
"3.	c #FDC22D",
"4.	c #CD9F29",
"5.	c #15161A",
"6.	c #1B1B1A",
"7.	c #1E1E1E",
"8.	c #000003",
"9.	c #BC9633",
"0.	c #191204",
"a.	c #675013",
"b.	c #FFCB2E",
"c.	c #8F7124",
"d.	c #0B0F19",
"e.	c #1A1A1A",
"f.	c #131313",
"g.	c #2E2A24",
"h.	c #FFCB2C",
"i.	c #8B6B19",
"j.	c #BC9122",
"k.	c #4F411E",
"l.	c #17171A",
"m.	c #111111",
"n.	c #030304",
"o.	c #B69136",
"p.	c #E9B22A",
"q.	c #FFD031",
"r.	c #E6B42C",
"s.	c #27231B",
"t.	c #2B2928",
"u.	c #FFCA2C",
"v.	c #FFCF31",
"w.	c #0F0A03",
"x.	c #362B0A",
"y.	c #FFC62F",
"z.	c #FFC42D",
"A.	c #BD9328",
"B.	c #101319",
"C.	c #1B1A1A",
"D.	c #222222",
"E.	c #080808",
"F.	c #050606",
"G.	c #AF8C38",
"H.	c #5F4A11",
"I.	c #765D16",
"J.	c #FFCA2E",
"K.	c #796222",
"L.	c #0D1019",
"M.	c #272727",
"N.	c #111110",
"O.	c #2C2B2D",
"P.	c #FFC82C",
"Q.	c #8D721B",
"R.	c #99781C",
"S.	c #FCC22D",
"T.	c #40361D",
"U.	c #19191A",
"V.	c #191919",
"W.	c #1F1F20",
"X.	c #282929",
"Y.	c #4B4433",
"Z.	c #937B35",
"`.	c #C8A039",
" +	c #F7BF2F",
".+	c #FFCA2A",
"++	c #FFC22C",
"@+	c #C29523",
"#+	c #DCAC2B",
"$+	c #1E1D1A",
"%+	c #181717",
"&+	c #151619",
"*+	c #151A27",
"=+	c #313130",
"-+	c #6B5C34",
";+	c #9E8238",
">+	c #D7AC3F",
",+	c #FFC731",
"'+	c #FFC82A",
")+	c #FDC12B",
"!+	c #EAB32A",
"~+	c #DDAA28",
"{+	c #AA8426",
"]+	c #1A1A19",
"^+	c #181817",
"/+	c #0F1014",
"(+	c #101625",
"_+	c #39362F",
":+	c #6F5D30",
"<+	c #9E8132",
"[+	c #D5A836",
"}+	c #FFCE33",
"|+	c #F0B82B",
"1+	c #645221",
"2+	c #111319",
"3+	c #181818",
"4+	c #101217",
"5+	c #060C1B",
"6+	c #2F2B22",
"7+	c #EDB72D",
"8+	c #FFD432",
"9+	c #F7BE2D",
"0+	c #F3BC2C",
"a+	c #332D1C",
"b+	c #29251B",
"c+	c #E9B62C",
"d+	c #FFD632",
"e+	c #F2B92B",
"f+	c #CC9F2C",
"g+	c #010716",
"h+	c #151618",
"i+	c #16171A",
"j+	c #55451F",
"k+	c #FFD532",
"l+	c #DFAC28",
"m+	c #FFC82D",
"n+	c #FFC434",
"o+	c #C49A31",
"p+	c #8F762F",
"q+	c #60512D",
"r+	c #27292E",
"s+	c #0C101A",
"t+	c #121315",
"u+	c #191918",
"v+	c #957624",
"w+	c #C49723",
"x+	c #FFC32C",
"y+	c #FFCB29",
"z+	c #FAC33A",
"A+	c #C69F3C",
"B+	c #8F7736",
"C+	c #5D5232",
"D+	c #222630",
"E+	c #161922",
"F+	c #131415",
"G+	c #191A1A",
"H+	c #D1A32A",
"I+	c #EDB62B",
"J+	c #9F7C1D",
"K+	c #FFC32B",
"L+	c #FFCC2A",
"M+	c #EAB634",
"N+	c #BD9A3C",
"O+	c #887135",
"P+	c #51472F",
"Q+	c #2B2B2A",
"R+	c #222323",
"S+	c #191818",
"T+	c #342D1C",
"U+	c #F4BD2C",
"V+	c #C69824",
"W+	c #786017",
"X+	c #FCC12D",
"Y+	c #FFC92C",
"Z+	c #16141A",
"`+	c #090909",
" @	c #232324",
".@	c #20201F",
"+@	c #655321",
"@@	c #91741B",
"#@	c #3D300B",
"$@	c #8B712B",
"%@	c #070606",
"&@	c #1C1C1C",
"*@	c #AB8526",
"=@	c #685013",
"-@	c #FFD231",
";@	c #16151D",
">@	c #DDAC2B",
",@	c #191305",
"'@	c #C89924",
")@	c #997A2E",
"!@	c #040404",
"~@	c #40371D",
"{@	c #F2B92C",
"]@	c #6C5614",
"^@	c #FFC92D",
"/@	c #1A191D",
"(@	c #7A6223",
"_@	c #050401",
":@	c #A48230",
"<@	c #030203",
"[@	c #202020",
"}@	c #BE9328",
"|@	c #271D07",
"1@	c #AD871F",
"2@	c #1F1D1D",
"3@	c #1C1C1B",
"4@	c #DCA828",
"5@	c #AE8A31",
"6@	c #000001",
"7@	c #1D1E21",
"8@	c #50411E",
"9@	c #594510",
"0@	c #BF9623",
"a@	c #24211D",
"b@	c #030711",
"c@	c #907224",
"d@	c #E9B32A",
"e@	c #1E1605",
"f@	c #B79132",
"g@	c #D0A22C",
"h@	c #46350D",
"i@	c #99751B",
"j@	c #2C261C",
"k@	c #201906",
"l@	c #F0BA2C",
"m@	c #BD9223",
"n@	c #EDB82B",
"o@	c #C09831",
"p@	c #503E0F",
"q@	c #FFCA2F",
"r@	c #070601",
"s@	c #221B06",
"t@	c #332B19",
"u@	c #A17B1D",
"v@	c #3D2F0B",
"w@	c #513F0F",
"x@	c #C99F30",
"y@	c #070501",
"z@	c #D7A727",
"A@	c #826518",
"B@	c #806317",
"C@	c #3D3116",
"D@	c #AF861F",
"E@	c #8B6C19",
"F@	c #D4A52E",
"G@	c #675113",
"H@	c #B58B21",
"I@	c #6F5714",
"J@	c #FFC62D",
"K@	c #3C2F10",
"L@	c #B38A20",
"M@	c #9F7A1C",
"N@	c #3F310B",
"O@	c #EDB62C",
"P@	c #D0A326",
"Q@	c #5D4A11",
"R@	c #120E03",
"S@	c #D5A627",
"T@	c #E8B42A",
"U@	c #221A06",
"V@	c #675213",
"W@	c #8E6E1A",
"X@	c #9F7B1D",
"Y@	c #090702",
"Z@	c #6E5915",
"`@	c #E7B129",
" #	c #F4BA2C",
".#	c #826618",
"+#	c #1F1806",
"@#	c #796017",
"##	c #C39523",
"$#	c #CD9D25",
"%#	c #866919",
"&#	c #2D2308",
"*#	c #171204",
"=#	c #44350C",
"-#	c #695113",
";#	c #7F6417",
">#	c #806A19",
",#	c #806B19",
"'#	c #806518",
")#	c #6D5314",
"!#	c #48390E",
"~#	c #1F1805",
"                                                                                                                                ",
"                                                                                                                                ",
"                                                      . . . . . . . . . .                                                       ",
"                                              . . . . . + @ # $ % & * = . . . . .                                               ",
"                                        . . . - ; > , ' ) ! ~ { { ] ! ^ / ( _ : < . . .                                         ",
"                                    . . . [ } | 1 2 3 3 3 3 3 3 3 3 3 3 3 3 3 { | 4 5 . . .                                     ",
"                                . . . 6 7 8 3 3 3 3 3 3 3 3 3 3 3 3 3 3 3 3 3 3 3 3 { 9 0 . . .                                 ",
"                              . . a b { 3 3 3 3 3 3 3 3 3 3 3 3 3 3 3 3 3 3 3 3 3 3 3 3 c d e . .                               ",
"                            f . g ^ 3 3 3 3 3 3 3 3 3 3 3 3 3 3 3 3 3 3 3 3 3 3 3 3 3 3 3 3 h i j .                             ",
"                        . . k l m 3 3 3 3 3 3 3 3 3 3 3 3 3 3 3 3 3 3 3 3 3 3 3 3 m n h 3 3 3 m o p . .                         ",
"                      . . q r 3 3 3 3 3 3 3 3 3 3 3 3 3 3 3 3 3 3 3 3 3 3 3 3 3 ] s t 1 3 3 3 3 3 u v . .                       ",
"                    . . w u 3 3 3 3 3 3 3 3 3 3 3 3 3 3 3 3 3 3 3 3 3 3 3 3 3 u x . y 3 3 3 3 3 3 3 z A . .                     ",
"                    . B C 3 3 3 3 3 3 3 3 3 3 3 3 3 3 3 3 3 3 3 3 3 3 3 3 m D E . F G 3 3 3 3 3 3 3 3 D H . .                   ",
"                  f I J 3 3 3 3 3 3 3 3 3 3 3 3 3 3 3 3 3 3 3 3 3 3 3 3 m K L M . N 3 3 3 3 3 3 3 3 3 3 ) O .                   ",
"                . P ^ 3 3 3 3 3 3 3 3 3 3 3 3 3 3 3 3 3 3 3 3 3 3 3 3 D Q . . . R S 3 3 3 3 3 3 3 3 3 3 3 J T f                 ",
"              . . U m 3 3 3 3 3 3 3 3 3 3 3 3 3 3 3 3 3 3 3 3 3 3 3 u V . . . . W 3 3 3 3 3 3 3 3 3 3 3 3 3 7 . .               ",
"              . X c 3 3 3 3 3 3 3 3 3 3 3 3 3 3 3 3 3 3 3 3 3 3 m Y Z . . . . `  .3 3 3 3 3 3 3 3 3 3 3 3 3 m ...               ",
"            . +.J 3 3 3 3 3 3 3 3 3 3 3 3 3 3 3 3 3 3 3 3 3 3 3 @.#.M . . . . $.3 3 3 3 3 3 3 3 3 3 3 3 3 3 3 J %..             ",
"            . &.m 3 3 3 3 3 3 3 3 3 3 3 3 3 3 3 3 3 3 3 3 3 *.=.-.. . . . . ;.>.3 3 3 3 3 3 3 3 3 3 3 3 3 3 3 3 ,.. .           ",
"          . '.).3 3 3 3 3 3 3 3 3 3 3 3 3 3 3 3 3 3 3 3 3 !.~.{.. . . . . ].^.2 3 3 3 3 3 3 3 3 3 3 3 3 3 3 3 3 z /..           ",
"          . (.m 3 3 3 3 3 3 3 3 3 3 3 3 3 3 3 3 3 3 3 m _.:.<.[.. . . . . }.|.3 3 3 3 3 3 3 3 3 3 3 3 3 3 3 3 3 3 1..           ",
"        . . 2.3 3 3 3 3 3 3 3 3 3 3 3 3 3 3 3 3 3 3 3.4.5.6.7.. . . . . 8.9.2 3 3 3 3 3 3 3 3 3 3 3 3 3 3 3 3 3 3 2.0..         ",
"        . a.{ 3 3 3 3 3 3 3 3 3 3 3 3 3 3 3 3 3 3 b.c.d.e.e.f.. . . . . g.h.3 3 3 3 3 3 3 3 3 3 3 3 3 3 3 3 3 3 3 3 i..         ",
"        . j.3 3 3 3 3 3 3 3 3 3 3 3 3 3 3 3 3 m z k.l.e.e.e.m.. . . . n.o.Y 3 3 3 3 3 3 3 3 3 3 3 3 3 3 3 3 3 3 3 3 p..         ",
"      . . q.3 3 3 3 3 3 3 3 3 3 3 3 3 3 3 3 m r.s.6.e.e.e.e.e.. . . . t.u.3 3 3 3 3 3 3 3 3 3 3 3 3 3 3 3 3 3 3 3 3 v.w..       ",
"      . x.y.3 3 3 3 3 3 3 3 3 3 3 3 3 3 3 z.A.B.C.e.e.e.e.e.D.E.. . F.G.3 3 3 3 3 3 3 3 3 3 3 3 3 3 3 3 3 3 3 3 3 3 ] H..       ",
"      . I.c 3 3 3 3 3 3 3 3 3 3 3 3 3 3 J.K.L.e.e.e.e.e.e.e.e.M.N.. O.P.3 3 3 3 3 3 3 3 3 3 3 3 3 3 3 3 3 3 3 3 3 3 2 Q..       ",
"      . R.2 3 3 3 3 3 3 3 3 3 3 3 3 m S.T.U.e.e.e.e.e.e.e.e.e.V.W.X.Y.Z.`. +.+++3 3 3 3 3 3 3 3 3 3 3 3 3 3 3 3 3 3 3 @+.       ",
"      . @+3 3 3 3 3 3 3 3 3 3 3 3 3 #+$+6.e.e.e.e.e.e.e.e.e.e.e.e.e.V.%+&+*+=+-+;+>+,+'+)+3 3 3 3 3 3 3 3 3 3 3 3 3 3 !+.       ",
"      . ~+3 3 3 3 3 3 3 3 3 3 3 *.{+L.e.e.e.e.e.e.e.e.e.e.e.e.e.e.e.e.e.e.e.e.]+^+/+(+_+:+<+[+}+P.{ 3 3 3 3 3 3 3 3 3 C . .     ",
"      . |+3 3 3 3 3 3 3 3 3 3 !.1+2+e.e.e.e.e.e.e.e.e.e.e.e.e.e.e.e.e.e.e.e.e.e.e.e.e.e.C.3+4+5+6+7+3 3 3 3 3 3 3 3 3 8+. .     ",
"      . 9+3 3 3 3 3 3 3 3 m 0+a+e.e.e.e.e.e.e.e.e.e.e.e.e.e.e.e.e.e.e.e.e.e.e.e.e.e.e.e.e.e.6.b+c+m 3 3 3 3 3 3 3 3 3 d+. .     ",
"      . e+3 3 3 3 3 3 3 3 f+g+h+]+e.e.e.e.e.e.e.e.e.e.e.e.e.e.e.e.e.e.e.e.e.e.e.e.e.e.e.e.i+j+z 3 3 3 3 3 3 3 3 3 3 3 k+. .     ",
"      . l+3 3 3 3 3 3 3 3 m+n+o+p+q+r+s+t+u+e.e.e.e.e.e.e.e.e.e.e.e.e.e.e.e.e.e.e.e.e.e.d.v+J.3 3 3 3 3 3 3 3 3 3 3 3 J . .     ",
"      . w+3 3 3 3 3 3 3 3 3 3 3 2 x+y+z+A+B+C+D+E+F+u+G+e.e.e.e.e.e.e.e.e.e.e.e.e.e.6.l.H+{ 3 3 3 3 3 3 3 3 3 3 3 3 3 I+.       ",
"      . J+3 3 3 3 3 3 3 3 3 3 3 3 3 3 3 3 3 K+L+M+N+O+P+Q+R+S+e.e.e.e.e.e.e.e.e.e.e.T+U+m 3 3 3 3 3 3 3 3 3 3 3 3 3 3 V+.       ",
"      . W+3 3 3 3 3 3 3 3 3 3 3 3 3 3 3 3 3 3 3 3 3 X+Y+Z+`+ @.@e.e.e.e.e.e.e.e.2++@!.3 3 3 3 3 3 3 3 3 3 3 3 3 3 3 2 @@.       ",
"      . #@D 3 3 3 3 3 3 3 3 3 3 3 3 3 3 3 3 3 3 3 3 c $@%@. . &@&@e.e.e.e.e.e.L.*@o 3 3 3 3 3 3 3 3 3 3 3 3 3 3 3 3 3.=@.       ",
"      . . -@3 3 3 3 3 3 3 3 3 3 3 3 3 3 3 3 3 3 3 3  .;@. . . . D.e.e.e.e.6.$+>@3 3 3 3 3 3 3 3 3 3 3 3 3 3 3 3 3 3 u ,@.       ",
"        . '@3 3 3 3 3 3 3 3 3 3 3 3 3 3 3 3 3 3 3 3 )@!@. . . . V.e.e.e.U.~@3.m 3 3 3 3 3 3 3 3 3 3 3 3 3 3 3 3 3 3 {@.         ",
"        . ]@X+3 3 3 3 3 3 3 3 3 3 3 3 3 3 3 3 3 3 ^@/@. . . . . 3+e.e.L.(@b.3 3 3 3 3 3 3 3 3 3 3 3 3 3 3 3 3 3 3 m A .         ",
"        . _@q.3 3 3 3 3 3 3 3 3 3 3 3 3 3 3 3 3 3 :@<@. . . . . [@e.B.}@z.3 3 3 3 3 3 3 3 3 3 3 3 3 3 3 3 3 3 3 3 C |@.         ",
"          . 1@2 3 3 3 3 3 3 3 3 3 3 3 3 3 3 3 3 |.2@. . . . . m.3@s.r.m 3 3 3 3 3 3 3 3 3 3 3 3 3 3 3 3 3 3 3 3 3 4@.           ",
"          . = u 3 3 3 3 3 3 3 3 3 3 3 3 3 3 3 Y 5@6@. . . . . 7@8@z m 3 3 3 3 3 3 3 3 3 3 3 3 3 3 3 3 3 3 3 3 3 h 9@.           ",
"            . 0@2 3 3 3 3 3 3 3 3 3 3 3 3 3 3 |.a@. . . . . b@c@b.3 3 3 3 3 3 3 3 3 3 3 3 3 3 3 3 3 3 3 3 3 3 3 d@. .           ",
"            . e@2.3 3 3 3 3 3 3 3 3 3 3 3 3 3 f@. . . . . . g@3.3 3 3 3 3 3 3 3 3 3 3 3 3 3 3 3 3 3 3 3 3 3 3 ^ h@.             ",
"              . i@3 3 3 3 3 3 3 3 3 3 3 3 3 h.j@. . . . k@l@m 3 3 3 3 3 3 3 3 3 3 3 3 3 3 3 3 3 3 3 3 3 3 3 m m@. .             ",
"              . . n@3 3 3 3 3 3 3 3 3 3 3 3 o@. . . . p@q@3 3 3 3 3 3 3 3 3 3 3 3 3 3 3 3 3 3 3 3 3 3 3 3 3 D r@.               ",
"                . s@C 3 3 3 3 3 3 3 3 3 3 u.t@. . . u@) 3 3 3 3 3 3 3 3 3 3 3 3 3 3 3 3 3 3 3 3 3 3 3 3 3 u v@f                 ",
"                  . w@r 3 3 3 3 3 3 3 3 3 x@. M y@z@3 3 3 3 3 3 3 3 3 3 3 3 3 3 3 3 3 3 3 3 3 3 3 3 3 3 h A@.                   ",
"                  . . B@z 3 3 3 3 3 3 3 m+C@. = Y m 3 3 3 3 3 3 3 3 3 3 3 3 3 3 3 3 3 3 3 3 3 3 3 3 3 X+D@. .                   ",
"                    . . E@9 3 3 3 3 3 3 F@. G@u 3 3 3 3 3 3 3 3 3 3 3 3 3 3 3 3 3 3 3 3 3 3 3 3 3 3 3.H@. .                     ",
"                      . . I@u 3 3 3 3 J@K@L@D 3 3 3 3 3 3 3 3 3 3 3 3 3 3 3 3 3 3 3 3 3 3 3 3 3 3 9 M@. .                       ",
"                        . . N@9 m 3 3 O@P@m 3 3 3 3 3 3 3 3 3 3 3 3 3 3 3 3 3 3 3 3 3 3 3 3 3 3 u Q@. .                         ",
"                            . R@S@1 3 X+3 3 3 3 3 3 3 3 3 3 3 3 3 3 3 3 3 3 3 3 3 3 3 3 3 3 c T@U@. .                           ",
"                              . . V@y.3 3 3 3 3 3 3 3 3 3 3 3 3 3 3 3 3 3 3 3 3 3 3 3 3 m u A@. .                               ",
"                                . . . W@q@c 3 3 3 3 3 3 3 3 3 3 3 3 3 3 3 3 3 3 3 3 3 2.X@Y@. .                                 ",
"                                    . . . Z@`@u 3 3 3 3 3 3 3 3 3 3 3 3 3 3 3 3 ^  #.##.. .                                     ",
"                                        . . . +#@###u C ! 3.3 2 2 2 { ! q@q.$#%#&#. . .                                         ",
"                                              . . . . *#=#-#;#>#,#'#)#!#~#. . . . .                                             ",
"                                                    . . . . . . . . . . . .                                                     ",
"                                                                                                                                ",
"                                                                                                                                ",
"                                                                                                                                "};
