/* XPM */
static char * bitcoin32_xpm[] = {
"32 32 203 2",
"  	c None",
". 	c #000000",
"+ 	c #100C03",
"@ 	c #281F07",
"# 	c #120E04",
"$ 	c #060401",
"% 	c #6C5714",
"& 	c #C99A24",
"* 	c #FFD031",
"= 	c #FFCD30",
"- 	c #FFC82F",
"; 	c #FFCC30",
"> 	c #FFD231",
", 	c #CE9E25",
"' 	c #735C16",
") 	c #080702",
"! 	c #9A771C",
"~ 	c #FFCE31",
"{ 	c #FCC02D",
"] 	c #FBC02D",
"^ 	c #A37E1E",
"/ 	c #060501",
"( 	c #392C0A",
"_ 	c #FFC42E",
": 	c #FABF2D",
"< 	c #FDC12D",
"[ 	c #F8BE2D",
"} 	c #FFC72F",
"| 	c #46360D",
"1 	c #624E12",
"2 	c #FFCB30",
"3 	c #886918",
"4 	c #CF9F26",
"5 	c #816417",
"6 	c #5A4811",
"7 	c #FFCA30",
"8 	c #48370D",
"9 	c #43340E",
"0 	c #FFC52E",
"a 	c #FFC62E",
"b 	c #775E16",
"c 	c #2D2308",
"d 	c #E9B62B",
"e 	c #1D1605",
"f 	c #D4A42B",
"g 	c #3A2D0A",
"h 	c #F0BB2C",
"i 	c #FEC22D",
"j 	c #C29524",
"k 	c #010000",
"l 	c #3B2F11",
"m 	c #FFC82D",
"n 	c #FBC32E",
"o 	c #705A15",
"p 	c #FFCB2E",
"q 	c #886E27",
"r 	c #C89D2D",
"s 	c #8A6B19",
"t 	c #F7C12D",
"u 	c #FFC42D",
"v 	c #463B1E",
"w 	c #111112",
"x 	c #312815",
"y 	c #FFCA2D",
"z 	c #FFC92F",
"A 	c #3F310C",
"B 	c #E1B12B",
"C 	c #22201B",
"D 	c #1C1C1B",
"E 	c #080808",
"F 	c #C09931",
"G 	c #FBBF2D",
"H 	c #FFC22E",
"I 	c #574310",
"J 	c #8D711B",
"K 	c #FFC52D",
"L 	c #B48D27",
"M 	c #0F1119",
"N 	c #1A1A1A",
"O 	c #111111",
"P 	c #2C261A",
"Q 	c #FFCB2C",
"R 	c #9D7C1D",
"S 	c #CB9C25",
"T 	c #6E5B21",
"U 	c #0E1119",
"V 	c #1E1E1E",
"W 	c #141415",
"X 	c #8D7635",
"Y 	c #FBC232",
"Z 	c #FFCB2B",
"` 	c #FFC22C",
" .	c #DCAA28",
"..	c #F3BA2C",
"+.	c #F9C02D",
"@.	c #39311D",
"#.	c #1A1919",
"$.	c #141517",
"%.	c #0A0F1B",
"&.	c #282826",
"*.	c #635329",
"=.	c #92782D",
"-.	c #C89D30",
";.	c #FFCA33",
">.	c #FFC72D",
",.	c #FFCA2F",
"'.	c #D8A92A",
").	c #19191A",
"!.	c #1B1B1A",
"~.	c #141518",
"{.	c #000016",
"].	c #C0962B",
"^.	c #FFD833",
"/.	c #F6BE2D",
"(.	c #675324",
"_.	c #413924",
":.	c #090F1E",
"<.	c #0F1116",
"[.	c #181819",
"}.	c #23211B",
"|.	c #E3B12B",
"1.	c #FFD632",
"2.	c #E2AE29",
"3.	c #FCC12D",
"4.	c #FFC62D",
"5.	c #FFD030",
"6.	c #DCAD35",
"7.	c #A1842F",
"8.	c #725E2B",
"9.	c #383326",
"0.	c #222222",
"a.	c #191818",
"b.	c #18181A",
"c.	c #493D1E",
"d.	c #F9BE2D",
"e.	c #B28A20",
"f.	c #FDC12C",
"g.	c #FAC22E",
"h.	c #000006",
"i.	c #0B0F19",
"j.	c #886C24",
"k.	c #C59824",
"l.	c #6E5815",
"m.	c #6B5620",
"n.	c #131519",
"o.	c #C99C29",
"p.	c #816518",
"q.	c #0D0A02",
"r.	c #FFD131",
"s.	c #F8C030",
"t.	c #000005",
"u.	c #1E1D1D",
"v.	c #2D281C",
"w.	c #EDB92C",
"x.	c #211906",
"y.	c #BD9322",
"z.	c #725D20",
"A.	c #07080C",
"B.	c #5A4A1F",
"C.	c #FFC82E",
"D.	c #D9A627",
"E.	c #FFCE30",
"F.	c #FDC531",
"G.	c #000004",
"H.	c #9E7C26",
"I.	c #FFCA2E",
"J.	c #40310C",
"K.	c #A8811E",
"L.	c #7B631F",
"M.	c #020100",
"N.	c #D3A427",
"O.	c #BB9022",
"P.	c #E5B42A",
"Q.	c #FFC931",
"R.	c #000003",
"S.	c #271F07",
"T.	c #F8BF2D",
"U.	c #F2BC2C",
"V.	c #F4BE2C",
"W.	c #7C621B",
"X.	c #5C4A11",
"Y.	c #FCC22D",
"Z.	c #1B1405",
"`.	c #0B0902",
" +	c #E0B029",
".+	c #A47F1F",
"++	c #E7B62B",
"@+	c #171204",
"#+	c #91711A",
"$+	c #FFCF31",
"%+	c #9F7A1D",
"&+	c #130F03",
"*+	c #9C7B1D",
"=+	c #FFC32E",
"-+	c #A4811E",
";+	c #1A1405",
">+	c #846A19",
",+	c #B0871F",
"'+	c #C69A24",
")+	c #C69B24",
"!+	c #B38920",
"~+	c #866D19",
"{+	c #4D3B0E",
"                                                                ",
"                        . . + @ @ # . .                         ",
"                    $ % & * = - - ; > , ' )                     ",
"                . ! ~ { ] ] ] ] ] ] ] ] { * ^ /                 ",
"              ( _ : ] ] ] ] ] ] ] ] ] ] < [ : } | .             ",
"          . 1 = ] ] ] ] ] ] ] ] ] ] ] 2 3 4 ] ] 2 5 .           ",
"          6 7 ] ] ] ] ] ] ] ] ] ] ] - 8 9 0 ] ] ] a b .         ",
"        c = ] ] ] ] ] ] ] ] ] ] : d e . f ] ] ] ] ] = g         ",
"      . h ] ] ] ] ] ] ] ] ] ] i j . k l m ] ] ] ] ] ] n .       ",
"      o { ] ] ] ] ] ] ] ] ] p q . . . r ] ] ] ] ] ] ] ] s       ",
"    . t ] ] ] ] ] ] ] ] : u v w . . x y ] ] ] ] ] ] ] ] z .     ",
"    A 0 ] ] ] ] ] ] ] : B C D E . . F G ] ] ] ] ] ] ] ] H I     ",
"    J : ] ] ] ] ] ] K L M N N O . P Q ] ] ] ] ] ] ] ] ] G R     ",
"  . S ] ] ] ] ] ] p T U N N N V W X Y Z ` G ] ] ] ] ] ] ]  ..   ",
"  . ..] ] ] ] : +.@.N N N N N N #.$.%.&.*.=.-.;.>.] ] ] ] ; .   ",
"  . ,.] ] ] { '.).!.N N N N N N N N N N N #.~.{.].{ ] ] ] ^..   ",
"  . 0 ] ] ] /.(._.:.<.[.N N N N N N N N N !.}.|.] ] ] ] ] 1..   ",
"  . 2.] ] ] ] 3.4.5.6.7.8.9.0.a.N N N N b.c.0 : ] ] ] ] ] d..   ",
"    e.] ] ] ] ] ] ] ] G f.g.h.N N N N i.j.p ] ] ] ] ] ] ] k..   ",
"    l.{ ] ] ] ] ] ] ] ] < m.. . V !.n.o.i ] ] ] ] ] ] ] ] p.    ",
"    q.r.] ] ] ] ] ] ] ] s.t.. . u.v.w.: ] ] ] ] ] ] ] ] ; x.    ",
"    . y.G ] ] ] ] ] ] 3.z.. . A.B.C.] ] ] ] ] ] ] ] ] ] D..     ",
"      @ E.] ] ] ] ] ] F.G.. . H.I.] ] ] ] ] ] ] ] ] ] z J.      ",
"      . K.G ] ] ] ] { L.. M.N.{ ] ] ] ] ] ] ] ] ] ] : O..       ",
"        . P.: ] ] ] Q.R.S.T.: ] ] ] ] ] ] ] ] ] ] ] U..         ",
"          + V.: ] ] W.X.; ] ] ] ] ] ] ] ] ] ] ] : Y.Z.          ",
"            `. +] 0 .+a ] ] ] ] ] ] ] ] ] ] ] G ++@+            ",
"              . #+$+{ ] ] ] ] ] ] ] ] ] ] G $+%+.               ",
"                  &+*+E._ G ] ] ] ] G =+$+-+;+.                 ",
"                      . | >+,+'+)+!+~+{+.                       ",
"                              . .                               ",
"                                                                "};
