/* XPM */
static char * bitcoin16_xpm[] = {
"16 16 99 2",
"  	c None",
". 	c #000000",
"+ 	c #020100",
"@ 	c #251D07",
"# 	c #95761C",
"$ 	c #FCC42E",
"% 	c #FFD031",
"& 	c #FEC62E",
"* 	c #97791D",
"= 	c #2C2108",
"- 	c #665213",
"; 	c #FFCF31",
"> 	c #FABF2D",
", 	c #FBC02D",
"' 	c #FFCA30",
") 	c #CD9D25",
"! 	c #715A15",
"~ 	c #624F12",
"{ 	c #FFCA2F",
"] 	c #44350C",
"^ 	c #CA9B26",
"/ 	c #FFC72F",
"( 	c #6C5714",
"_ 	c #131004",
": 	c #FFCD30",
"< 	c #F1BD2F",
"[ 	c #201806",
"} 	c #372C0E",
"| 	c #FFC92E",
"1 	c #1F1806",
"2 	c #8F6F1A",
"3 	c #FDC12D",
"4 	c #CC9F29",
"5 	c #0F1014",
"6 	c #C49A2B",
"7 	c #94721B",
"8 	c #D8A727",
"9 	c #FFCB2E",
"0 	c #8C7024",
"a 	c #0B0F19",
"b 	c #1A1A1A",
"c 	c #2D2719",
"d 	c #FFDB2F",
"e 	c #FFC62D",
"f 	c #FCC12D",
"g 	c #E2AE29",
"h 	c #FFCB30",
"i 	c #FDC22D",
"j 	c #4D3F1E",
"k 	c #18181A",
"l 	c #161618",
"m 	c #080E1C",
"n 	c #423A22",
"o 	c #695423",
"p 	c #F3BB2D",
"q 	c #FFD532",
"r 	c #FFC62E",
"s 	c #D2A22A",
"t 	c #937A28",
"u 	c #655425",
"v 	c #2B2821",
"w 	c #1D1D1C",
"x 	c #1B1B1A",
"y 	c #15161A",
"z 	c #CEA12A",
"A 	c #C89A24",
"B 	c #FBBF2D",
"C 	c #FFC22D",
"D 	c #F2BB2D",
"E 	c #000004",
"F 	c #302B1C",
"G 	c #F0BB2C",
"H 	c #D3A226",
"I 	c #766016",
"J 	c #FCC02D",
"K 	c #FFC32D",
"L 	c #564415",
"M 	c #000001",
"N 	c #615022",
"O 	c #836718",
"P 	c #F7C02D",
"Q 	c #ECB72E",
"R 	c #A37E20",
"S 	c #FCC32E",
"T 	c #3A2E0B",
"U 	c #FFCC30",
"V 	c #604D14",
"W 	c #D8A827",
"X 	c #40320C",
"Y 	c #382D0A",
"Z 	c #F3BF2D",
"` 	c #EDB52B",
" .	c #FDC02D",
"..	c #F4BE2D",
"+.	c #3D310C",
"@.	c #745E16",
"#.	c #AE8720",
"$.	c #E1AD28",
"%.	c #B18920",
"              . +               ",
"        @ # $ % % & * =         ",
"      - ; > , , , ' ) % !       ",
"    ~ ' , , , , { ] ^ , / (     ",
"  _ : , , , > < [ } | , , ; 1   ",
"  2 > , , 3 4 5 . 6 , , , > 7   ",
"  8 , , 9 0 a b c d e f , , g   ",
"  h , i j k b b l m n o p , q   ",
"  r , s t u v w b x y z 3 , %   ",
"  A , , B C D E w F G > , , H   ",
"  I J , , K L M N | , , , , O   ",
"    P , , Q . R | , , , , S     ",
"    T U K V W , , , , , : X     ",
"      Y Z ` > , , ,  ...+.      ",
"          @.#.$.g %.@.          ",
"                                "};
